<svg width="64" height="64" viewBox="0 0 64 64" fill="none" xmlns="http://www.w3.org/2000/svg">
  <path
    d="M28.4 7.4c1.9-3.3 5.3-5.4 9.1-5.4s7.2 2.1 9.1 5.4l15.3 26.7c1.1 2 1.7 3.6 1.7 5.2 0 4-3.2 6.9-7.9 6.9H42.8c-6.5 0-13.8-3.9-19-10.1-5.2 6.2-12.5 10.1-19 10.1H8.3C3.6 49.1.4 46.2.4 42.2c0-1.6.6-3.2 1.7-5.2L17.4 10c1.9-3.3 5.3-5.4 9.1-5.4s7.2 2.1 9.1 5.4z"
    stroke="white"
    stroke-width="2"
    fill="none"
    stroke-linecap="round"
    stroke-linejoin="round"
  />
  <path
    d="M32 17l3.2 9.3 9.3 3.2-9.3 3.2L32 42.1l-3.2-9.4-9.3-3.2 9.3-3.2L32 17z"
    stroke="white"
    stroke-width="2"
    fill="none"
    stroke-linecap="round"
    stroke-linejoin="round"
  />
</svg>


